<svg xmlns="http://www.w3.org/2000/svg" width="16" height="16" viewBox="1693.61 27 16 16"><path d="M1704.917 40.89c-.421.07-.858.11-1.307.11-1.444 0-2.77-.382-3.805-1.02.102.002.201.02.305.02 4.16 0 7.624-2.652 8.353-6.139.718.742 1.147 1.652 1.147 2.639 0 .925-.373 1.785-1.012 2.5h.012v4l-3.693-2.11Zm-10.307-5.468c-.63-.848-1-1.847-1-2.922 0-3.038 2.91-5.5 6.5-5.5s6.5 2.462 6.5 5.5-2.91 5.5-6.5 5.5a7.455 7.455 0 0 1-2.801-.542l-2.7 1.542v-3.578Z" fill="#bcbccb" fill-rule="evenodd" data-name="Chat Icon"/></svg>