<svg xmlns="http://www.w3.org/2000/svg" width="3761.036" height="1197.742" viewBox="-1208.428 0 3761.036 1197.742"><g data-name="Group 244"><path d="M0 0h960v1080H0V0z" fill-rule="evenodd" fill="url(&quot;#a&quot;)" data-name="Rectangle 176"/><g data-name="Group 4" clip-path="url(&quot;#b&quot;)"><g data-name="Products Sold Graph"><path d="M330 822.827V577.385s370.205 160.989 666 171.1c319.847-9.8 375.232-78.697 624.37-171.1 212.898-77.02 425.215-98.158 629-92.715 203.787 5.442 380.416 88.642 621.135 97.168 424.655-34.35 641.315-208.024 670.006-280.561v612.832L330 914.382v-91.555Z" fill-rule="evenodd" fill="url(&quot;#c&quot;)" transform="translate(-987.902 21.236)" data-name="Filled.Graph"/><path d="M-654.956 599.263S-287.14 764.089 3.68 767.638c290.822 3.549 402.525-85.057 625.275-168.156s434.508-97.281 629.465-94.488c194.955 2.794 384.48 89.875 624.023 94.497 239.541 4.622 627.073-150.527 670.166-279.84" stroke-linejoin="round" stroke-linecap="round" stroke-width="2" stroke="#a3a0fb" fill="transparent" data-name="Line.Graph"/><g data-name="Mar.Ellipse"><path d="M614.842 600.528a13.792 13.792 0 1 1 0 .1z" fill="#fff" fill-rule="evenodd"/><path d="M615.842 600.532a12.792 12.792 0 1 1 0 .093z" stroke-linejoin="round" stroke-linecap="round" stroke-width="1.85498" stroke="#a4a1fb" fill="transparent"/></g><g data-name="Feb.Ellipse"><path d="M189.454 753.22a13.792 13.792 0 1 1 0 .1z" fill="#fff" fill-rule="evenodd"/><path d="M190.454 753.224a12.792 12.792 0 1 1 0 .092z" stroke-linejoin="round" stroke-linecap="round" stroke-width="1.85498" stroke="#a4a1fb" fill="transparent"/></g></g><g data-name="Products Sold Graph"><path d="M330 822.827V577.385s370.205 160.989 666 171.1c319.847-9.8 375.232-78.697 624.37-171.1 212.898-77.02 425.215-98.158 629-92.715 203.787 5.442 380.416 88.642 621.135 97.168 424.655-34.35 641.315-208.024 670.006-280.561v612.832L330 914.382v-91.555Z" fill-rule="evenodd" fill="url(&quot;#d&quot;)" transform="translate(-1140.302 283.36)" data-name="Filled.Graph"/><path d="M-807.356 861.388s367.815 164.826 658.635 168.375c290.822 3.549 402.525-85.057 625.275-168.156s434.508-97.281 629.465-94.488c194.955 2.794 384.48 89.875 624.023 94.497 239.541 4.622 627.073-150.527 670.166-279.84" stroke-linejoin="round" stroke-linecap="round" stroke-width="2" stroke="#a3a0fb" fill="transparent" data-name="Line.Graph"/><g data-name="Mar.Ellipse"><path d="M462.442 862.653a13.792 13.792 0 1 1 0 .1z" fill="#fff" fill-rule="evenodd"/><path d="M463.442 862.657a12.792 12.792 0 1 1 0 .093z" stroke-linejoin="round" stroke-linecap="round" stroke-width="1.85498" stroke="#a4a1fb" fill="transparent"/></g></g><g data-name="Total Views Graph"><path d="M330 729.22V354.423S691.328 727.05 988.143 741.074c331.172-3.158 333.886-193.446 624.9-297.617 243.63-81.794 429.53 141.325 633.316 146.767 203.786 5.442 344.427-152.916 622.453-163.918 360.214 16.568 649.26 228.141 671.69 239.517v154.68L330 820.775v-91.554Z" fill-rule="evenodd" fill="url(&quot;#e&quot;)" transform="translate(-1173.17 -9.682)" data-name="Filled.Graph"/><path d="M-845.16 347.914s372.574 379.496 663.756 383.044c291.182 3.55 390.755-223.598 624.55-300.177 233.797-76.578 436.616 146.07 631.814 148.865 195.198 2.793 382.086-167.272 621.925-162.65 239.84 4.622 514.051 133.267 665.648 234.746" stroke-linejoin="round" stroke-linecap="round" stroke-width="2" stroke="#54d8ff" fill="transparent" data-name="Line.Graph"/><g data-name="May.Ellipse"><path d="M1675.202 416.38a13.792 13.792 0 1 1 0 .1z" fill="#fff" fill-rule="evenodd"/><path d="M1676.202 416.383a12.792 12.792 0 1 1 0 .093z" stroke-linejoin="round" stroke-linecap="round" stroke-width="1.85498" stroke="#55d8fe" fill="transparent"/></g><g data-name="Mar.Ellipse"><path d="M524.21 415.45a13.792 13.792 0 1 1 0 .1z" fill="#fff" fill-rule="evenodd"/><path d="M525.21 415.454a12.792 12.792 0 1 1 0 .092z" stroke-linejoin="round" stroke-linecap="round" stroke-width="1.85498" stroke="#55d8fe" fill="transparent"/></g></g><g data-name="Total Views Graph"><path d="M330 729.22V354.423S691.328 727.05 988.143 741.074c331.172-3.158 333.886-193.446 624.9-297.617 243.63-81.794 429.53 141.325 633.316 146.767 203.786 5.442 344.427-152.916 622.453-163.918 360.214 16.568 649.26 228.141 671.69 239.517v154.68L330 820.775v-91.554Z" fill-rule="evenodd" fill="url(&quot;#f&quot;)" transform="translate(-1537.638 114.447)" data-name="Filled.Graph"/><path d="M-1208.428 472.043s372.574 379.496 663.755 383.044c291.182 3.55 390.755-223.598 624.551-300.177 233.796-76.578 436.615 146.071 631.813 148.865 195.198 2.793 382.087-167.272 621.925-162.65 239.84 4.622 514.052 133.267 665.648 234.747" stroke-linejoin="round" stroke-linecap="round" stroke-width="2" stroke="#54d8ff" fill="transparent" data-name="Line.Graph"/><g data-name="Apr.Ellipse"><path d="M815.985 687.678a13.792 13.792 0 1 1 0 .1z" fill="#fff" fill-rule="evenodd"/><path d="M816.985 687.681a12.792 12.792 0 1 1 0 .093z" stroke-linejoin="round" stroke-linecap="round" stroke-width="1.85498" stroke="#55d8fe" fill="transparent"/></g><g data-name="Mar.Ellipse"><path d="M62.137 554.315a13.792 13.792 0 1 1 0 .1z" fill="#fff" fill-rule="evenodd"/><path d="M63.137 554.32a12.792 12.792 0 1 1 0 .092z" stroke-linejoin="round" stroke-linecap="round" stroke-width="1.85498" stroke="#55d8fe" fill="transparent"/></g></g></g></g><defs><linearGradient x1=".897" y1=".14" x2=".206" y2=".877" id="a"><stop stop-color="#242348" offset="0"/><stop stop-color="#5a55aa" offset="1"/></linearGradient><linearGradient x1=".5" y1="0" x2=".5" y2="1" id="c"><stop stop-color="#a7a7ff" offset="0"/><stop stop-color="rgba(255,255,255,0 )" offset="1"/></linearGradient><linearGradient x1=".5" y1="0" x2=".5" y2="1" id="d"><stop stop-color="#a7a7ff" offset="0"/><stop stop-color="rgba(255,255,255,0 )" offset="1"/></linearGradient><linearGradient x1=".5" y1="0" x2=".5" y2="1" id="e"><stop stop-color="#54d8ff" offset="0"/><stop stop-color="rgba(255,255,255,0 )" offset="1"/></linearGradient><linearGradient x1=".5" y1="0" x2=".5" y2="1" id="f"><stop stop-color="#54d8ff" offset="0"/><stop stop-color="rgba(255,255,255,0 )" offset="1"/></linearGradient><clipPath id="b"><path d="M0 0h960v1080H0V0z" data-name="Rectangle 179"/></clipPath></defs></svg>