<svg xmlns="http://www.w3.org/2000/svg" width="16" height="16" viewBox="1669.289 27 16 16"><path d="M1677.29 27c-4.4 0-8 3.6-8 8s3.6 8 8 8 8-3.6 8-8-3.6-8-8-8Zm0 10c-1.1 0-2-.9-2-2s.9-2 2-2 2 .9 2 2-.9 2-2 2Zm0-8c.9 0 1.8.2 2.6.6l-1.557 1.556c-.76-.207-1.327-.207-2.089 0l-1.555-1.556c.8-.4 1.7-.6 2.6-.6Zm-6 6c0-.9.2-1.8.6-2.6l1.555 1.556c-.207.761-.207 1.327 0 2.089l-1.556 1.555c-.4-.8-.6-1.7-.6-2.6Zm6 6c-.9 0-1.8-.2-2.6-.6l1.555-1.556c.761.207 1.327.207 2.09 0l1.554 1.556c-.8.4-1.7.6-2.6.6Zm5.4-3.4-1.557-1.556c.207-.761.207-1.327 0-2.089l1.556-1.555c.4.8.6 1.7.6 2.6 0 .9-.2 1.8-.6 2.6Z" fill="#bcbccb" fill-rule="evenodd" data-name="Support Iocn"/></svg>